# xmcd
#
# Track frame offsets:
#	150
#	15292
#	30302
#	42035
#	54587
#	67462
#	82147
#	94045
#	113272
#	122715
#	133830
#	148095
#	159612
#	173430
#	188317
#	204075
#	219032
#	231675
#	242310
#	253872
#
# Disc length: 3584 seconds
#
# Revision: 1
# Processed by: cddbd v1.5.2PL0 Copyright (c) Steve Scherf et al.
# Submitted via: audiograbber 1.83.01
#
DISCID=030dfe14
DTITLE=Various Artist - MAGIC MOMENTS
DYEAR=1900
DGENRE=Easy Listening
TTITLE0=GE' KORSTEN - ALWAYS
TTITLE1=VIRGINIA LEE - HAVE I TOLD YOU LATELY THAT I LOVE YOU
TTITLE2=ALAN GARRITY - HOME ISN'T HOME ANYMORE
TTITLE3=GERT POTGIETER - CHERYL MOANA MARIE
TTITLE4=MIN SHAW - LOVE IS A BEAUTIFUL SONG
TTITLE5=PETER LOTIS - HONEY
TTITLE6=BARBARA RAY - I NEED YOU
TTITLE7=JODY WAYNE - THE WEDDING
TTITLE8=GERT POTGIETER - SWEET MARIA
TTITLE9=VIRGINIA LEE - DARLING IT'S WONDERFUL
TTITLE10=RUDI NEITZ - SOME ENCHANTED EVENING
TTITLE11=CHARLES JACOBY - FOREVER AND EVER
TTITLE12=JUDY PAGE - I'LL NEVER FALL IN LOVE AGAIN
TTITLE13=GENE ROCKWELL - HEART
TTITLE14=JOANNA FIELD - DON'T FLY TO HIGH
TTITLE15=TOMMY DELL - SOME BROKEN HEARTS NEVER MEND
TTITLE16=JODY WAYNE - SIXTEEN CANDLES
TTITLE17=VIRGINIA LEE - HAPPY BIRTHDAY MY DARLING
TTITLE18=ALAN GARRITY - I NEED SOMEONE
TTITLE19=BARBARA RAY - SILVER THREADS AND GOLDEN NEEDLES
EXTD=
EXTT0=
EXTT1=
EXTT2=
EXTT3=
EXTT4=
EXTT5=
EXTT6=
EXTT7=
EXTT8=
EXTT9=
EXTT10=
EXTT11=
EXTT12=
EXTT13=
EXTT14=
EXTT15=
EXTT16=
EXTT17=
EXTT18=
EXTT19=
PLAYORDER=
